<?xml version="1.0" standalone="no"?>
<!DOCTYPE svg PUBLIC "-//W3C//DTD SVG 20010904//EN"
 "http://www.w3.org/TR/2001/REC-SVG-20010904/DTD/svg10.dtd">
<svg version="1.0" xmlns="http://www.w3.org/2000/svg"
 width="16.000000pt" height="16.000000pt" viewBox="0 0 16.000000 16.000000"
 preserveAspectRatio="xMidYMid meet">
<metadata>
Created by potrace 1.11, written by Peter Selinger 2001-2013
</metadata>
<g transform="translate(0.000000,16.000000) scale(0.012500,-0.012500)"
fill="#000000" stroke="none">
<path d="M541 1268 c4 -36 -2 -79 -11 -73 -14 8 -13 -8 1 -22 7 -7 12 -46 12
-95 -1 -68 -4 -84 -17 -86 -14 -3 -16 -23 -16 -152 0 -82 -4 -151 -8 -154 -7
-4 -8 -16 -3 -58 1 -4 9 -14 18 -24 10 -10 18 -30 19 -46 1 -27 0 -28 -51 -28
-44 0 -54 -3 -58 -20 -4 -15 -14 -20 -39 -20 -27 0 -37 -5 -46 -25 -10 -23
-17 -25 -70 -25 -46 0 -63 4 -77 20 -13 15 -15 24 -8 31 8 8 13 8 17 0 11 -17
41 -13 61 10 16 17 17 25 8 49 -11 28 -10 28 26 27 35 -2 36 -1 36 33 l0 34
-61 1 c-33 1 -65 5 -72 9 -16 10 -105 -80 -95 -97 4 -6 8 -91 8 -187 l1 -175
32 -3 c26 -3 32 0 32 15 0 11 5 24 11 30 5 5 11 26 11 44 1 19 4 36 8 39 5 3
30 3 58 2 48 -4 50 -5 61 -43 17 -57 76 -108 124 -109 l37 0 0 -74 c0 -48 4
-77 13 -84 15 -13 246 -15 265 -3 9 5 14 33 15 82 l2 74 35 5 c49 7 106 54
121 98 15 50 28 58 88 54 46 -4 51 -6 51 -28 0 -13 6 -42 13 -64 11 -37 15
-40 42 -37 l30 3 1 160 c0 87 4 172 8 188 6 25 2 35 -35 72 -23 24 -47 41 -52
37 -5 -3 -39 -6 -76 -7 l-66 -1 0 -33 c-1 -33 8 -38 58 -33 20 3 20 1 7 -33
-7 -19 -5 -30 10 -48 16 -21 21 -22 49 -11 35 13 41 2 17 -30 -11 -14 -27 -17
-81 -16 -60 2 -68 4 -76 25 -7 19 -16 24 -44 24 -28 0 -35 4 -35 20 0 18 -7
20 -60 20 -47 0 -60 3 -60 15 0 9 9 15 24 15 17 0 27 7 32 22 4 13 2 24 -4 26
-6 2 -8 20 -5 42 3 22 1 40 -4 40 -5 0 -8 63 -8 149 2 137 0 150 -17 154 -16
5 -18 16 -18 97 0 58 4 89 10 85 6 -3 10 1 10 9 0 9 -4 16 -10 16 -5 0 -10 18
-10 40 0 22 -4 40 -10 40 -5 0 -10 -20 -10 -45 0 -25 -4 -45 -10 -45 -5 0 -10
20 -10 45 0 25 -4 45 -10 45 -5 0 -10 -20 -10 -45 0 -25 -4 -45 -9 -45 -12 0
-17 19 -16 58 1 17 -2 32 -7 32 -4 0 -8 -21 -8 -46 0 -51 -24 -59 -26 -8 -2
51 -4 57 -11 50 -5 -4 -8 -24 -8 -44 0 -19 -6 -37 -12 -39 -9 -3 -13 9 -13 41
0 25 -5 46 -10 46 -6 0 -10 -6 -9 -12z m96 -1163 c82 0 89 1 109 25 l22 25 -3
-48 c-1 -26 -5 -50 -8 -53 -4 -5 -184 -8 -234 -5 -9 1 -13 18 -13 52 l0 51 19
-23 c17 -22 27 -24 108 -24z"/>
<path d="M967 758 c-6 -18 34 -77 58 -85 11 -3 36 -7 55 -8 19 -1 43 -5 53 -9
9 -5 17 -4 17 2 0 10 -155 112 -170 112 -5 0 -10 -6 -13 -12z"/>
</g>
</svg>
